<svg xmlns="http://www.w3.org/2000/svg" width="900" height="420" viewBox="0 0 900 420" font-family="system-ui, 'Segoe UI', sans-serif">
  <defs>
    <marker id="pf" markerWidth="9" markerHeight="8" refX="8" refY="4" orient="auto">
      <path d="M0,0 L9,4 L0,8 z" fill="#52514e"/>
    </marker>
  </defs>
  <rect width="900" height="420" fill="white"/>
  <text x="40" y="28" font-size="15" font-weight="bold" fill="#0b0b0b">Aufbau eines N-BEATS-Blocks</text>
  <text x="40" y="46" font-size="12" fill="#52514e">ein MLP versteht das Eingabefenster – zwei lineare Köpfe lesen daraus Backcast und Forecast ab</text>
  <rect x="40" y="170" width="150" height="80" rx="6" fill="#2a78d6" fill-opacity="0.10" stroke="#2a78d6" stroke-width="1.6"/>
<path d="M52.0,202.7 L54.1,198.3 L56.2,198.0 L58.3,200.4 L60.4,202.9 L62.5,203.4 L64.6,201.3 L66.7,198.1 L68.8,196.1 L70.9,197.8 L73.0,203.9 L75.1,213.2 L77.2,222.6 L79.3,229.1 L81.4,230.6 L83.5,227.1 L85.6,220.8 L87.7,214.6 L89.8,210.9 L91.9,210.1 L94.0,211.2 L96.1,211.6 L98.2,209.4 L100.3,204.0 L102.4,196.8 L104.5,190.8 L106.6,188.7 L108.7,191.9 L110.8,199.5 L112.9,209.1 L115.0,217.3 L117.1,221.7 L119.2,222.0 L121.3,219.6 L123.4,217.1 L125.5,216.6 L127.6,218.7 L129.7,221.9 L131.8,223.9 L133.9,222.2 L136.0,216.1 L138.1,206.8 L140.2,197.4 L142.3,190.9 L144.4,189.4 L146.5,192.9 L148.6,199.2 L150.7,205.4 L152.8,209.1 L154.9,209.9 L157.0,208.8 L159.1,208.4 L161.2,210.6 L163.3,216.0 L165.4,223.2 L167.5,229.2 L169.6,231.3 L171.7,228.1 L173.8,220.5 L175.9,210.9 L178.0,202.7" fill="none" stroke="#2a78d6" stroke-width="1.8"/>
<text x="115" y="160" text-anchor="middle" font-size="12" font-weight="bold" fill="#0b0b0b">Eingabe</text>
<text x="115" y="268" text-anchor="middle" font-size="11" fill="#52514e">Rückblickfenster</text>
<text x="115" y="283" text-anchor="middle" font-size="11" fill="#52514e">(Länge L)</text>
<line x1="192" y1="210" x2="226" y2="210" stroke="#52514e" stroke-width="1.4" marker-end="url(#pf)"/>
<rect x="230" y="120" width="170" height="182" rx="8" fill="white" stroke="#52514e" stroke-width="1.4"/>
<text x="315" y="112" text-anchor="middle" font-size="12" font-weight="bold" fill="#0b0b0b">FC-Stack (MLP)</text>
<line x1="262" y1="142.0" x2="315" y2="142.0" stroke="#898781" stroke-width="0.6" opacity="0.55"/>
<line x1="262" y1="142.0" x2="315" y2="182.0" stroke="#898781" stroke-width="0.6" opacity="0.55"/>
<line x1="262" y1="142.0" x2="315" y2="222.0" stroke="#898781" stroke-width="0.6" opacity="0.55"/>
<line x1="262" y1="142.0" x2="315" y2="262.0" stroke="#898781" stroke-width="0.6" opacity="0.55"/>
<line x1="262" y1="172.0" x2="315" y2="142.0" stroke="#898781" stroke-width="0.6" opacity="0.55"/>
<line x1="262" y1="172.0" x2="315" y2="182.0" stroke="#898781" stroke-width="0.6" opacity="0.55"/>
<line x1="262" y1="172.0" x2="315" y2="222.0" stroke="#898781" stroke-width="0.6" opacity="0.55"/>
<line x1="262" y1="172.0" x2="315" y2="262.0" stroke="#898781" stroke-width="0.6" opacity="0.55"/>
<line x1="262" y1="202.0" x2="315" y2="142.0" stroke="#898781" stroke-width="0.6" opacity="0.55"/>
<line x1="262" y1="202.0" x2="315" y2="182.0" stroke="#898781" stroke-width="0.6" opacity="0.55"/>
<line x1="262" y1="202.0" x2="315" y2="222.0" stroke="#898781" stroke-width="0.6" opacity="0.55"/>
<line x1="262" y1="202.0" x2="315" y2="262.0" stroke="#898781" stroke-width="0.6" opacity="0.55"/>
<line x1="262" y1="232.0" x2="315" y2="142.0" stroke="#898781" stroke-width="0.6" opacity="0.55"/>
<line x1="262" y1="232.0" x2="315" y2="182.0" stroke="#898781" stroke-width="0.6" opacity="0.55"/>
<line x1="262" y1="232.0" x2="315" y2="222.0" stroke="#898781" stroke-width="0.6" opacity="0.55"/>
<line x1="262" y1="232.0" x2="315" y2="262.0" stroke="#898781" stroke-width="0.6" opacity="0.55"/>
<line x1="262" y1="262.0" x2="315" y2="142.0" stroke="#898781" stroke-width="0.6" opacity="0.55"/>
<line x1="262" y1="262.0" x2="315" y2="182.0" stroke="#898781" stroke-width="0.6" opacity="0.55"/>
<line x1="262" y1="262.0" x2="315" y2="222.0" stroke="#898781" stroke-width="0.6" opacity="0.55"/>
<line x1="262" y1="262.0" x2="315" y2="262.0" stroke="#898781" stroke-width="0.6" opacity="0.55"/>
<line x1="315" y1="142.0" x2="368" y2="142.0" stroke="#898781" stroke-width="0.6" opacity="0.55"/>
<line x1="315" y1="142.0" x2="368" y2="172.0" stroke="#898781" stroke-width="0.6" opacity="0.55"/>
<line x1="315" y1="142.0" x2="368" y2="202.0" stroke="#898781" stroke-width="0.6" opacity="0.55"/>
<line x1="315" y1="142.0" x2="368" y2="232.0" stroke="#898781" stroke-width="0.6" opacity="0.55"/>
<line x1="315" y1="142.0" x2="368" y2="262.0" stroke="#898781" stroke-width="0.6" opacity="0.55"/>
<line x1="315" y1="182.0" x2="368" y2="142.0" stroke="#898781" stroke-width="0.6" opacity="0.55"/>
<line x1="315" y1="182.0" x2="368" y2="172.0" stroke="#898781" stroke-width="0.6" opacity="0.55"/>
<line x1="315" y1="182.0" x2="368" y2="202.0" stroke="#898781" stroke-width="0.6" opacity="0.55"/>
<line x1="315" y1="182.0" x2="368" y2="232.0" stroke="#898781" stroke-width="0.6" opacity="0.55"/>
<line x1="315" y1="182.0" x2="368" y2="262.0" stroke="#898781" stroke-width="0.6" opacity="0.55"/>
<line x1="315" y1="222.0" x2="368" y2="142.0" stroke="#898781" stroke-width="0.6" opacity="0.55"/>
<line x1="315" y1="222.0" x2="368" y2="172.0" stroke="#898781" stroke-width="0.6" opacity="0.55"/>
<line x1="315" y1="222.0" x2="368" y2="202.0" stroke="#898781" stroke-width="0.6" opacity="0.55"/>
<line x1="315" y1="222.0" x2="368" y2="232.0" stroke="#898781" stroke-width="0.6" opacity="0.55"/>
<line x1="315" y1="222.0" x2="368" y2="262.0" stroke="#898781" stroke-width="0.6" opacity="0.55"/>
<line x1="315" y1="262.0" x2="368" y2="142.0" stroke="#898781" stroke-width="0.6" opacity="0.55"/>
<line x1="315" y1="262.0" x2="368" y2="172.0" stroke="#898781" stroke-width="0.6" opacity="0.55"/>
<line x1="315" y1="262.0" x2="368" y2="202.0" stroke="#898781" stroke-width="0.6" opacity="0.55"/>
<line x1="315" y1="262.0" x2="368" y2="232.0" stroke="#898781" stroke-width="0.6" opacity="0.55"/>
<line x1="315" y1="262.0" x2="368" y2="262.0" stroke="#898781" stroke-width="0.6" opacity="0.55"/>
<circle cx="262" cy="142.0" r="6.5" fill="#f0efec" stroke="#52514e" stroke-width="1.1"/>
<circle cx="262" cy="172.0" r="6.5" fill="#f0efec" stroke="#52514e" stroke-width="1.1"/>
<circle cx="262" cy="202.0" r="6.5" fill="#f0efec" stroke="#52514e" stroke-width="1.1"/>
<circle cx="262" cy="232.0" r="6.5" fill="#f0efec" stroke="#52514e" stroke-width="1.1"/>
<circle cx="262" cy="262.0" r="6.5" fill="#f0efec" stroke="#52514e" stroke-width="1.1"/>
<circle cx="315" cy="142.0" r="6.5" fill="#f0efec" stroke="#52514e" stroke-width="1.1"/>
<circle cx="315" cy="182.0" r="6.5" fill="#f0efec" stroke="#52514e" stroke-width="1.1"/>
<circle cx="315" cy="222.0" r="6.5" fill="#f0efec" stroke="#52514e" stroke-width="1.1"/>
<circle cx="315" cy="262.0" r="6.5" fill="#f0efec" stroke="#52514e" stroke-width="1.1"/>
<circle cx="368" cy="142.0" r="6.5" fill="#f0efec" stroke="#52514e" stroke-width="1.1"/>
<circle cx="368" cy="172.0" r="6.5" fill="#f0efec" stroke="#52514e" stroke-width="1.1"/>
<circle cx="368" cy="202.0" r="6.5" fill="#f0efec" stroke="#52514e" stroke-width="1.1"/>
<circle cx="368" cy="232.0" r="6.5" fill="#f0efec" stroke="#52514e" stroke-width="1.1"/>
<circle cx="368" cy="262.0" r="6.5" fill="#f0efec" stroke="#52514e" stroke-width="1.1"/>
<text x="315" y="285" text-anchor="middle" font-size="13" fill="#52514e">⋯ mehrere Schichten ⋯</text>
<text x="315" y="318" text-anchor="middle" font-size="11" fill="#52514e">vollverbundenes MLP:</text>
<text x="315" y="333" text-anchor="middle" font-size="11" fill="#52514e">jede Schicht Linear + ReLU</text>
<line x1="402" y1="210" x2="434" y2="210" stroke="#52514e" stroke-width="1.4" marker-end="url(#pf)"/>
<circle cx="462" cy="210" r="23" fill="white" stroke="#0b0b0b" stroke-width="1.6"/>
<text x="462" y="216" text-anchor="middle" font-size="16" font-style="italic" font-weight="bold" fill="#0b0b0b">h</text>
<text x="462" y="252" text-anchor="middle" font-size="11" fill="#52514e">gemeinsame</text>
<text x="462" y="267" text-anchor="middle" font-size="11" fill="#52514e">Repräsentation</text>
<line x1="478" y1="194" x2="528" y2="122" stroke="#52514e" stroke-width="1.4" marker-end="url(#pf)"/>
<line x1="478" y1="226" x2="528" y2="298" stroke="#52514e" stroke-width="1.4" marker-end="url(#pf)"/>
<rect x="530" y="95" width="150" height="46" rx="8" fill="#f0efec" stroke="#898781" stroke-width="1"/>
<text x="605" y="115" text-anchor="middle" font-size="11" font-weight="bold" fill="#0b0b0b">Lineare Projektion</text>
<text x="605" y="130" text-anchor="middle" font-size="10" fill="#52514e">(Backcast-Kopf)</text>
<rect x="530" y="285" width="150" height="46" rx="8" fill="#f0efec" stroke="#898781" stroke-width="1"/>
<text x="605" y="305" text-anchor="middle" font-size="11" font-weight="bold" fill="#0b0b0b">Lineare Projektion</text>
<text x="605" y="320" text-anchor="middle" font-size="10" fill="#52514e">(Forecast-Kopf)</text>
<line x1="682" y1="118" x2="706" y2="118" stroke="#52514e" stroke-width="1.4" marker-end="url(#pf)"/>
<line x1="682" y1="308" x2="706" y2="308" stroke="#52514e" stroke-width="1.4" marker-end="url(#pf)"/>
<text x="790" y="67" text-anchor="middle" font-size="12" font-weight="bold" fill="#0b0b0b">Backcast (Länge L)</text>
<rect x="710" y="78" width="160" height="80" rx="6" fill="#2a78d6" fill-opacity="0.10" stroke="#2a78d6" stroke-width="1.6" stroke-dasharray="5,3"/>
<path d="M722.0,111.0 L724.3,106.7 L726.5,106.5 L728.8,108.8 L731.1,111.2 L733.3,111.7 L735.6,109.7 L737.9,106.5 L740.1,104.6 L742.4,106.3 L744.7,112.2 L746.9,121.0 L749.2,130.1 L751.5,136.4 L753.7,137.8 L756.0,134.5 L758.3,128.4 L760.5,122.5 L762.8,118.8 L765.1,118.1 L767.3,119.1 L769.6,119.6 L771.9,117.4 L774.1,112.2 L776.4,105.3 L778.7,99.6 L780.9,97.5 L783.2,100.6 L785.5,107.9 L787.7,117.1 L790.0,125.0 L792.3,129.3 L794.5,129.5 L796.8,127.2 L799.1,124.8 L801.3,124.3 L803.6,126.3 L805.9,129.5 L808.1,131.4 L810.4,129.7 L812.7,123.8 L814.9,115.0 L817.2,105.9 L819.5,99.6 L821.7,98.2 L824.0,101.5 L826.3,107.6 L828.5,113.5 L830.8,117.2 L833.1,117.9 L835.3,116.9 L837.6,116.4 L839.9,118.6 L842.1,123.8 L844.4,130.7 L846.7,136.4 L848.9,138.5 L851.2,135.4 L853.5,128.1 L855.7,118.9 L858.0,111.0" fill="none" stroke="#2a78d6" stroke-width="1.8" stroke-dasharray="4,3"/>
<text x="790" y="174" text-anchor="middle" font-size="10" fill="#52514e">Rekonstruktion des Eingabefensters:</text>
<text x="790" y="187" text-anchor="middle" font-size="10" fill="#52514e">„was hat der Block verstanden?“ –</text>
<text x="790" y="200" text-anchor="middle" font-size="10" fill="#52514e">wird vom Input abgezogen → Residuum</text>
<text x="790" y="257" text-anchor="middle" font-size="12" font-weight="bold" fill="#0b0b0b">Forecast (Länge H)</text>
<rect x="710" y="268" width="160" height="80" rx="6" fill="#e34948" fill-opacity="0.10" stroke="#e34948" stroke-width="1.6"/>
<path d="M722.0,306.2 L724.3,312.8 L726.5,315.9 L728.8,315.7 L731.1,313.9 L733.3,313.0 L735.6,314.6 L737.9,318.3 L740.1,322.5 L742.4,324.4 L744.7,322.0 L746.9,315.2 L749.2,305.8 L751.5,296.8 L753.7,291.1 L756.0,290.2 L758.3,293.4 L760.5,298.5 L762.8,302.8 L765.1,304.6 L767.3,303.9 L769.6,302.6 L771.9,303.0 L774.1,306.6 L776.4,313.4 L778.7,321.3 L780.9,327.4 L783.2,329.1 L785.5,325.7 L787.7,318.3 L790.0,309.8 L792.3,303.2 L794.5,300.1 L796.8,300.3 L799.1,302.1 L801.3,303.0 L803.6,301.4 L805.9,297.7 L808.1,293.5 L810.4,291.6 L812.7,294.0 L814.9,300.8 L817.2,310.2 L819.5,319.2 L821.7,324.9 L824.0,325.8 L826.3,322.6 L828.5,317.5 L830.8,313.2 L833.1,311.4 L835.3,312.1 L837.6,313.4 L839.9,313.0 L842.1,309.4 L844.4,302.6 L846.7,294.7 L848.9,288.6 L851.2,286.9 L853.5,290.3 L855.7,297.7 L858.0,306.2" fill="none" stroke="#e34948" stroke-width="1.8"/>
<text x="790" y="364" text-anchor="middle" font-size="10" fill="#52514e">Vorhersage über den Horizont –</text>
<text x="790" y="377" text-anchor="middle" font-size="10" fill="#52514e">die Teil-Forecasts aller Blöcke</text>
<text x="790" y="390" text-anchor="middle" font-size="10" fill="#52514e">werden aufsummiert</text>
</svg>
